{
	"asset":{
		"generator":"Khronos glTF Blender I/O v5.2.40",
		"version":"2.0"
	},
	"scene":0,
	"scenes":[
		{
			"name":"Scene",
			"nodes":[
				0
			]
		}
	],
	"nodes":[
		{
			"mesh":0,
			"name":"desk_shadow_catcher"
		}
	],
	"meshes":[
		{
			"name":"Book_1.003_Book_1_Mat_0.001",
			"primitives":[
				{
					"attributes":{
						"POSITION":0,
						"NORMAL":1,
						"TEXCOORD_0":2,
						"TEXCOORD_1":3,
						"TEXCOORD_2":4,
						"TEXCOORD_3":5
					},
					"indices":6
				}
			]
		}
	],
	"accessors":[
		{
			"bufferView":0,
			"componentType":5126,
			"count":59101,
			"max":[
				3.3617539405822754,
				3.334486961364746,
				-2.9465255737304688
			],
			"min":[
				0.993698000907898,
				0.24135643243789673,
				-7.55881404876709
			],
			"type":"VEC3"
		},
		{
			"bufferView":1,
			"componentType":5126,
			"count":59101,
			"type":"VEC3"
		},
		{
			"bufferView":2,
			"componentType":5126,
			"count":59101,
			"type":"VEC2"
		},
		{
			"bufferView":3,
			"componentType":5126,
			"count":59101,
			"type":"VEC2"
		},
		{
			"bufferView":4,
			"componentType":5126,
			"count":59101,
			"type":"VEC2"
		},
		{
			"bufferView":5,
			"componentType":5126,
			"count":59101,
			"type":"VEC2"
		},
		{
			"bufferView":6,
			"componentType":5123,
			"count":240195,
			"type":"SCALAR"
		}
	],
	"bufferViews":[
		{
			"buffer":0,
			"byteLength":709212,
			"byteOffset":0,
			"target":34962
		},
		{
			"buffer":0,
			"byteLength":709212,
			"byteOffset":709212,
			"target":34962
		},
		{
			"buffer":0,
			"byteLength":472808,
			"byteOffset":1418424,
			"target":34962
		},
		{
			"buffer":0,
			"byteLength":472808,
			"byteOffset":1891232,
			"target":34962
		},
		{
			"buffer":0,
			"byteLength":472808,
			"byteOffset":2364040,
			"target":34962
		},
		{
			"buffer":0,
			"byteLength":472808,
			"byteOffset":2836848,
			"target":34962
		},
		{
			"buffer":0,
			"byteLength":480390,
			"byteOffset":3309656,
			"target":34963
		}
	],
	"buffers":[
		{
			"byteLength":3790048,
			"uri":"desk_shadow_catcher.bin"
		}
	]
}
